# xmcd CD database file
#
# Track frame offsets:
#	150
#	15625
#	37340
#	56120
#	75860
#	93392
#	107255
#	124455
#	137742
#	155512
#	174485
#	196112
#	222352
#	242982
#	262002
#	278122
#	292087
#
# Disc length: 4109 seconds
#
# Revision: 2
# Processed by: cddbd v1.5.2PL0 Copyright (c) Steve Scherf et al.
# Submitted via: CDex 1.51
#
DISCID=fa100b11
DTITLE=Various Artist - Natural Wedding (Elegant)
DYEAR=1999
DGENRE=General Pop
TTITLE0=Aztec Camera - The Belle Of The Ball
TTITLE1=Enya - China Roses
TTITLE2=Barbara Weathers - Our Love Will Last Forever
TTITLE3=Peter Cetera - Glory Of Love
TTITLE4=Christopher Cross - Arthur's Theme(Best That You Can Do)
TTITLE5=Workshy - I Saw The Light
TTITLE6=Maria Muldaur - Midnight At The Oasis
TTITLE7=The Pogues - Honky Tonk Women
TTITLE8=The Cars - Drive
TTITLE9=Roger - I Want To Be Your Man
TTITLE10=Chaka Khan - Through The Fire
TTITLE11=Karyn White - Superwoman
TTITLE12=UNV - So In Love With You
TTITLE13=Take 6 - Almost Paradise
TTITLE14=Bette Midler - The Rose
TTITLE15=Harpers Bizarre - Me,Japanese Boy
TTITLE16=Larry Graham - When We Get Married
EXTD=YEAR: 1999
EXTT0=
EXTT1=
EXTT2=
EXTT3=
EXTT4=
EXTT5=
EXTT6=
EXTT7=
EXTT8=
EXTT9=
EXTT10=
EXTT11=
EXTT12=
EXTT13=
EXTT14=
EXTT15=
EXTT16=
PLAYORDER=
